 http://www.imdb.com/title/tt2265381/


Format                                   : Matroska
Format version                           : Version 2
File size                                : 894 MiB
Duration                                 : 2h 33mn
Overall bit rate                         : 814 Kbps

Video
ID                                       : 1
Format                                   : AVC
Format/Info                              : Advanced Video Codec
Format profile                           : High@L4.1
Format settings, CABAC                   : Yes
Format settings, ReFrames                : 4 frames
Muxing mode                              : Header stripping
Codec ID                                 : V_MPEG4/ISO/AVC
Duration                                 : 2h 33mn
Bit rate                                 : 750 Kbps
Width                                    : 1 280 pixels
Height                                   : 544 pixels
Display aspect ratio                     : 2.35:1
Original display aspect ratio            : 2.35:1
Frame rate                               : 24.000 fps
Color space                              : YUV
Chroma subsampling                       : 4:2:0
Bit depth                                : 8 bits
Scan type                                : Progressive
Bits/(Pixel*Frame)                       : 0.045
Stream size                              : 806 MiB (90%)


Audio
ID                                       : 2
Format                                   : AC-3
Bit rate                                 : 64.0 Kbps
Channel(s)                               : 2 channels
Channel positions                        : Front: L R
Sampling rate                            : 48.0 KHz
Bit depth                                : 16 bits
Compression mode                         : Lossy
Stream size                              : 70.3 MiB (8%)
Default                                  : Yes
Forced                                   : No

 
http://www.shotpix.com/images/45768190797651250681.png 
http://www.shotpix.com/images/21155015705917670696.png 
http://www.shotpix.com/images/14745599162098791667.png 
http://www.shotpix.com/images/15819467538129820214.png 
http://www.shotpix.com/images/78301744809033301016.png 
http://www.shotpix.com/images/65786207804884766485.png 
http://www.shotpix.com/images/44505863894258114458.png 
http://www.shotpix.com/images/15545955437912861941.png


Cheeck the Sample First
